<?xml version="1.0" encoding="UTF-8"?>
<svg id="Layer_2" data-name="Layer 2" xmlns="http://www.w3.org/2000/svg" xmlns:xlink="http://www.w3.org/1999/xlink" viewBox="0 0 2806.24 1603.57">
  <defs>
    <style>
      .cls-1 {
        fill: #fff;
      }

      .cls-2 {
        fill: #fffcfc;
      }

      .cls-3 {
        fill: #ffd6d6;
      }

      .cls-4 {
        clip-path: url(#clippath-1);
      }

      .cls-5 {
        fill: #ffeaea;
      }

      .cls-6 {
        fill: #ffc7c7;
      }

      .cls-7 {
        fill: #ffb8b8;
      }
    </style>
    <clipPath id="clippath-1">
      <polyline class="cls-7" points="0 1603.57 0 0 2806.24 0 2806.24 1603.57"/>
    </clipPath>
  </defs>
  <g id="Layer_1-2" data-name="Layer 1">
    <g>
      <polyline class="cls-7" points="0 1603.57 0 0 2806.24 0 2806.24 1603.57"/>
      <g class="cls-4">
        <g>
          <path class="cls-6" d="M2328.4,921.16c-10.58-28.58-40.85-45.74-71.45-38.99-15.11,3.34-27.69,11.98-36.26,23.49-14.39-12.86-34.49-18.91-54.77-14.43-10.73,2.37-20.17,7.39-27.82,14.22-11.89-26.03-40.69-41.2-69.76-34.78-20.31,4.49-36.01,18.48-43.62,36.25-18.06-11.56-40.51-16.22-63.11-11.23-11.02,2.43-21.08,7-29.8,13.09-9.19-30.87-40.76-49.89-72.74-42.83-23.99,5.3-41.56,23.85-46.9,46.25-16.5-8.18-35.76-11.05-55.13-6.77-14.26,3.15-26.85,9.79-37.11,18.8-23.88-10.6-51.18-14.07-78.66-8-17.16,3.79-32.76,10.9-46.22,20.51-24.91-51.97-82.99-82.02-141.68-69.06-20.91,4.62-39.41,14.2-54.64,27.12-20.89-20.46-51.27-30.35-81.93-23.57-37.85,8.36-64.65,39.57-69.33,75.93-19.88-55.55-78.36-89.04-137.5-75.98-19.46,4.3-36.7,13.19-50.94,25.22-34.65-41.19-88.74-63.78-144.74-56.6,.03-5.46-.49-11.01-1.73-16.59-8.92-40.4-48.92-65.96-89.34-57.04-9.15,2.02-17.48,5.69-24.88,10.55-30.59-59.86-98.69-94.01-167.41-78.83-20.53,4.53-39.15,13.04-55.24,24.55-23.92-98.92-122.7-161-222.53-138.96-96.4,21.29-158.84,113.27-145.1,209.38-31.8-18.69-70.45-25.91-109.3-17.33-78.3,17.29-128.9,92.38-116.98,170.52-12.14-1.86-24.78-1.66-37.49,1.15-47.24,10.43-79.48,51.98-80.15,98.35-33.5-12.51-70.77-15.97-108.28-8.15L-115.87,1618.09c24.28,5.4,50.02,5.96,75.92,.24,60.81-13.43,107.21-56.85,127.21-111.25,67.24,65.42,165.03,96.86,263.51,75.11,58.02-12.81,108.05-42.27,146.21-82.23,28.75,22.34,66.85,32.2,105.2,23.73,35.15-7.76,63.55-29.46,80.9-57.93,30.48,31.48,75.98,46.98,121.91,36.83,40.66-8.98,72.57-36.04,89.35-70.83,34.32,41.95,90.43,63.52,147,51.03,60.35-13.33,103.92-61.59,114.17-118.83,32.87,23.05,74.95,32.76,117.26,23.41,29.64-6.55,55.24-21.53,74.83-41.86,18.42,4.59,38.12,5.23,57.91,.86,56.5-12.48,95.72-60.82,99.19-115.8,28.74,22.13,66.68,31.89,104.87,23.46,19.58-4.32,37.01-13.06,51.68-24.79,12.48,6.91,27.4,9.54,42.44,6.22,25.04-5.53,42.97-25.84,46.72-49.75,27.44-1.11,56.67-4.83,86.67-11.46,38.43-8.49,73.75-20.77,104.16-35.41,85.85,61.22,175.19-8.61,179.36-56.12,48.23-14.79,89.29-33.38,118.34-52.79,11.11,8.06,25.46,11.55,39.91,8.36,21.69-4.79,36.89-23.03,38.81-44.01,2.65-.59,5.28-1.14,7.94-1.72,130.66-28.86,233.21-67.35,229.08-86.03-3.94-17.84-103.63-11.08-226.29,14.64Z"/>
          <path id="back-right-cloud" class="cls-3" d="M3533.36,1298.37c-2.02-21.47-79.52-31.82-175.63-24.28-.04-.56-.03-1.12-.08-1.7-3.65-38.79-35.56-67.47-71.26-64.11-14.48,1.36-27.29,7.82-37.23,17.52-.2-.3-.4-.56-.59-.85-21.75-76.37-90.5-128.95-166.36-121.83-12.94,1.22-25.27,4.28-36.99,8.62-18.56-34.7-54.39-56.68-93.34-53.02-28.49,2.68-52.75,18.56-68.36,41.58-22.63-28.64-57.12-45.53-94.06-42.06-5.39,.51-10.58,1.55-15.67,2.86,2.28-14.71,2.98-29.98,1.51-45.59-8.83-93.93-86.12-163.45-172.65-155.31-45.27,4.25-83.94,29.03-109.43,65.02-25.63-50.15-76.79-82.16-132.39-76.93-47.54,4.47-86.76,35.11-107.06,77.67-18.92-26.53-49.39-42.5-82.18-39.42-9.04,.85-17.6,3.13-25.6,6.55-24.77-40.39-68.53-65.36-115.82-60.91-45.83,4.31-83.21,35.18-100.76,77.4-1.68,.06-3.36,.04-5.05,.2-33.74,3.17-61.31,25.72-74.55,56.61-31.14-26.76-71.23-41.32-113.57-37.34-46.57,4.38-86.26,30.28-111.92,67.79-43.61-27.93-95.19-42.02-149.08-36.96-74.13,6.97-137.26,48.67-177.3,109-18.68-6.95-38.88-10.01-59.71-8.06-79.37,7.46-137.17,83.33-129.07,169.5,.31,3.25,.87,6.41,1.36,9.58-7.7-1.42-15.65-1.95-23.77-1.19-35.44,3.33-64.1,28.01-76.48,61.35-19.68-8.55-41.32-12.5-63.73-10.4-59.31,5.57-105.91,51.04-120.06,109.88-3.86-.25-7.76-.29-11.69,.08-41.61,3.91-72.6,41.37-72.71,85.7-1.11,.03-2.22,.04-3.33,.14-25.42,2.39-44.95,23.23-48.65,49.34-6.24,.14-12.61,.45-19.12,1.07-51.81,4.87-93.92,23.65-104.89,44.79-4.16,.2-8.34,.48-12.61,.88-61.91,5.82-110.13,31.46-107.7,57.32,2.43,25.86,54.59,42.08,116.5,36.27,8-.75,15.76-1.84,23.22-3.23,19.81,13.67,58.76,20.71,102.73,16.57,4.31-.4,8.54-.93,12.71-1.52,7.48,24.68,29.9,41.6,54.64,39.27,5.64-.53,10.97-2.06,15.88-4.36,20.25,24.6,50.44,39.02,82.78,35.98,16.2-1.52,31.03-7.3,43.79-16.13,15.88,13.72,36.36,21.19,57.98,19.16,21.92-2.06,40.86-13.45,53.92-30.22,28.49,31.82,69.32,50.11,112.86,46.02,35.83-3.37,66.92-21.34,89.17-47.93,13.9,25.74,40.55,42.04,69.53,39.32,25.89-2.43,47.1-19.45,57.66-42.92,22.06,11.65,47.06,17.34,73.09,14.89,32.03-3.01,60.3-17.73,81.86-39.79,14.62,14.46,34.45,22.6,55.53,20.62,20.67-1.94,38.36-13.25,50.05-29.64,23.11,31.72,59.91,50.74,99.47,47.02,31.22-2.93,58.14-19.45,76.37-43.72,40.38,28.27,96.97,43.17,157.95,37.44,75.07-7.06,137.79-43.6,168.99-92.16,25.32,36.7,66.88,58.99,111.7,54.78,14.92-1.4,28.87-5.75,41.6-12.25,19.15,27.68,50.52,44.5,84.38,41.32,33.55-3.15,61.11-25.2,74.86-55.6,39.76,25.79,86.95,38.81,136.26,34.18,77.05-7.24,141.06-55.8,175.38-123.86,27.24,25.73,63.55,40.04,102.05,36.42,40.17-3.78,74.33-26.27,96.24-58.81,9.21,2.74,18.98,3.92,29.02,2.97,11.49-1.08,22.16-4.7,31.67-10.28,27.58,6.03,58.88,8.06,91.79,4.97,93.73-8.81,167.25-55.6,174.38-107.94,1.56-.03,3.11-.03,4.69-.18,21.95-2.06,40.19-15.78,50.18-35.03,9.55,4.37,20.15,6.39,31.12,5.36,32.17-3.02,56.38-31.04,58.24-64.88,80.49-11.92,139.14-33.53,137.34-52.63Z"/>
          <path id="left-middle-cloud" class="cls-5" d="M2256.87,1364.89c-25.8-2.75-53.42-4.11-80.86-4.34-1.15-14.5-9.33-28.16-23.08-35.61-21.54-11.6-48.45-3.58-60.08,17.97-5.16-74.44-211.73-117.42-247.18-47.7-3.6-26.79-19.29-51.59-44.88-65.4-42.43-22.87-95.42-7.08-118.31,35.38-.62,1.14-.89,2.34-1.46,3.5-12.93-3-26.06-5.03-39.27-6.04,4.23-24.19-6.86-49.42-29.68-61.76-27.25-14.67-60.79-5.43-77.15,20.3-9.03-7.4-18.84-14.09-29.5-19.84-26.4-14.25-54.74-21.28-82.84-22.1-15.21-40.82-44.56-76.59-85.91-98.9-72.48-39.11-159.33-25.13-216.18,28.45-.2-35.49-18.78-69.8-52.22-87.85-32.32-17.44-69.79-14.99-99.16,2.63-7.61-47.77-36.43-91.61-82.3-116.37-59.86-32.31-131.08-22.62-180.12,18.79-13.69-27.66-35.66-51.54-64.9-67.31-75.04-40.47-168.74-12.52-209.25,62.56-1.69,3.13-3.08,6.34-4.54,9.54-13.38-12.78-28.49-24.15-45.56-33.37-102.89-55.5-231.37-17.15-286.9,85.77-10.09,18.7-17,38.27-21.06,58.08-56.85-.8-112.21,29.15-141.06,82.66-8.14,15.08-13.48,30.9-16.36,46.9-33.44-7.1-68.1,2.96-92.55,26.74-6.49-5.32-13.54-10.14-21.19-14.26-62.66-33.82-140.28-12.06-176.71,48.22-2-1.51-3.99-3.02-6.26-4.24-23.61-12.74-53.1-3.94-65.84,19.68-5.46,10.14-6.76,21.31-4.82,31.84-6.26,1.47-12.39,3.45-18.31,5.97-4.25-9.23-11.24-17.27-20.89-22.47-23.61-12.73-53.1-3.92-65.83,19.7-5.11,9.47-6.61,19.85-5.23,29.74-8.13,1.8-15.96,4.41-23.3,8.08-20.51-4.3-42.23,4.88-52.67,24.27-1.09,2.02-1.81,4.14-2.61,6.24-6.07-1.33-12.41-2.26-19.1-2.26-23.62,0-44.03,9.02-55.25,22.33-1.75,0-3.45-.05-5.22-.05-66.39,0-120.19,10.32-120.19,23.08s53.79,23.07,120.19,23.07c1.77,0,3.47-.04,5.2-.06,11.24,13.33,31.65,22.34,55.27,22.34,13.34,0,25.74-2.85,36.02-7.75,8.34,15.06,21.59,28.07,39.31,36.66,26.12,12.67,55.81,12.73,81.16,3.08,7.04,6.65,14.95,12.56,23.86,17.37,35.15,18.98,75.85,17.33,108.42-.66,8.28,8.9,18.05,16.65,29.34,22.74,51.53,27.84,114.83,12.07,147.86-34.53,8.69,25.64,26.61,48.2,52.31,62.05,53.18,28.76,119.26,9.51,149.09-42.67,18.05,24.76,41.54,46.08,70.29,61.58,90.54,48.96,200.8,24.99,263.84-51.54,12.12,20.89,29.84,38.88,52.66,51.18,65.76,35.55,147.88,10.98,183.37-54.79,.53-.97,.89-1.96,1.39-2.93,8.86,26.85,27.48,50.53,54.33,64.98,55.7,30.13,125.26,9.3,155.34-46.41,2.04-3.78,3.8-7.64,5.38-11.52,16.82,25.6,40.03,47.51,68.88,63.06,88.89,48.05,198.75,18.15,251.95-65.96,11.16,17.6,26.79,32.71,46.42,43.3,51.54,27.85,113.76,15.87,151.82-25.15,4.44,2.9,8.95,5.75,13.7,8.3,72.01,38.92,158.1,25.35,214.96-27.33,71.82,22.23,155.04,11.09,208.93-25.32,36.19,6.19,74.29,6.45,109.55,1.48,6.78,7.91,14.93,14.87,24.65,20.11,42.44,22.95,95.42,7.1,118.34-35.36,.19-.36,.28-.76,.48-1.13,50.61-2.73,97.47-12.67,127.28-28.5,77.92,3,159.94-4.11,199.66-18.59,48.84-17.82,15.06-40.05-75.48-49.67Z"/>
          <path id="right-middle-cloud" class="cls-5" d="M3398.27,1505.66c-13.48-2.08-25.94-2.72-35.64-2.12-1.51-8.34-11.92-15.38-25.14-16.38-13.4-1.01-24.88,4.57-27.4,12.77-5.39-5.73-12.98-9.37-21.49-9.37-7.77,0-14.78,3.06-20.05,7.96-6.18-8.71-15.99-14.53-27.24-15.51-3.58-10.57-13.46-18.22-25.23-18.22-4.08,0-7.92,.99-11.38,2.63-8.55-15.16-24.77-25.41-43.41-25.41-12.58,0-24.04,4.7-32.83,12.37-11.88-8.97-26.61-14.36-42.65-14.36-10.22,0-19.91,2.21-28.68,6.1-3.14-24.52-24.03-43.48-49.41-43.48-3.63,0-7.17,.4-10.58,1.14,0-.38,.05-.76,.05-1.16,0-27.54-22.32-49.87-49.86-49.87-3.71,0-7.31,.44-10.79,1.2-13.61-50.22-59.36-87.19-113.9-87.19-25.69,0-49.38,8.28-68.76,22.19-4.65-43.47-41.41-77.33-86.12-77.33-25.23,0-47.87,10.85-63.71,28.06-7.06-78.99-73.32-140.92-154.16-140.92-37.18,0-71.27,13.12-97.96,34.95-36.64-51.33-96.66-84.82-164.55-84.82-97.6,0-179.01,69.14-197.96,161.12-13.84-3.99-28.42-6.24-43.55-6.24-80.73,0-147.16,60.75-156.32,139-9.43-3.26-19.51-5.13-30.07-5.13-34.19,0-63.96,18.73-79.78,46.45-9.67-2.86-19.88-4.45-30.47-4.45-37.59,0-70.63,19.3-89.87,48.5-7.32-4.93-16.14-7.81-25.62-7.81-20.9,0-38.52,13.98-44.09,33.08-4.18-1.84-8.79-2.89-13.67-2.89-.82,0-1.6,.14-2.4,.2v93.5c2.04-1.48,3.95-3.15,5.67-4.99,8.41,10.7,21.44,17.6,36.1,17.6,15.93,0,29.97-8.12,38.21-20.43,17.86,34.71,53.95,58.49,95.68,58.49,33.67,0,63.7-15.48,83.44-39.68,14.27,34.09,47.91,58.05,87.19,58.05,42.38,0,78.22-27.88,90.21-66.3,13.51,35.67,47.9,61.06,88.3,61.06,36.01,0,67.31-20.17,83.25-49.8,27.61,45.54,77.49,76.06,134.63,76.06,43.98,0,83.7-18.06,112.26-47.12,17.62,28.25,48.87,47.1,84.61,47.1,29.78,0,56.44-13.11,74.71-33.8,29.93,25.94,68.96,41.67,111.68,41.67,51.51,0,97.67-22.86,128.94-58.95,19.33,15.51,43.84,24.84,70.55,24.84,37.43,0,70.5-18.29,91.04-46.33,15.67,15.65,37.3,25.33,61.21,25.33,30.91,0,57.96-16.23,73.3-40.57,12.27,21.1,35.06,35.32,61.24,35.32,20.57,0,39.02-8.79,51.96-22.77,8.33,6.44,18.73,10.3,30.08,10.3,18.11,0,33.89-9.81,42.44-24.37,6.86,7.66,16.7,12.56,27.78,12.56,12.61,0,23.7-6.28,30.48-15.83,5.27,4.89,12.28,7.96,20.05,7.96,8.9,0,16.78-4.01,22.19-10.22,4.16,3.67,9.56,5.95,15.54,5.95,7.36,0,13.83-3.42,18.18-8.69,6.2,3.44,16.7,5.49,28.61,5.08,13.33-.46,24.65-3.89,30.07-8.49,25.36,2.83,45.39,.38,46.4-6.17,1.12-7.31-21.84-16.91-51.32-21.45Z"/>
          <path id="front-left-cloud" class="cls-2" d="M1731.08,1612.95c-15.47-2.91-29.83-4.13-41.05-3.81-1.42-9.68-13.17-18.2-28.39-19.86-15.42-1.68-28.88,4.32-32.1,13.69-6-6.82-14.62-11.3-24.44-11.63-8.97-.3-17.17,2.97-23.43,8.42-6.8-10.29-17.9-17.37-30.84-18.93-3.73-12.33-14.83-21.53-28.42-21.98-4.71-.16-9.18,.84-13.23,2.6-9.29-17.82-27.62-30.27-49.12-30.98-14.52-.48-27.92,4.5-38.35,13.02-13.36-10.81-30.15-17.58-48.67-18.2-11.79-.39-23.05,1.79-33.33,5.95-2.69-28.41-26.07-51.08-55.35-52.05-4.19-.14-8.29,.19-12.25,.91,.02-.44,.09-.88,.11-1.33,1.05-31.78-23.85-58.39-55.63-59.44-4.28-.14-8.45,.23-12.5,.98-13.79-58.46-65.17-102.87-128.1-104.94-29.64-.98-57.3,7.67-80.19,22.99-3.71-50.33-44.83-90.8-96.42-92.51-29.11-.96-55.65,10.7-74.58,29.95-5.14-91.42-79.23-165.4-172.5-168.48-42.9-1.42-82.73,12.42-114.37,36.59-40.32-60.62-108.3-101.56-186.63-104.14-112.61-3.72-209.19,72.95-234.55,178.36-15.82-5.13-32.56-8.28-50.01-8.86-60.44-2-114.77,25.85-149.27,70.15l-13.13,397.45c.47,.02,.93,.08,1.4,.1,48.9,1.62,91.32-29.19,106.61-73.06,14.23,41.67,52.94,72.28,99.55,73.82,41.55,1.37,78.43-20.7,97.95-54.29,30.12,53.6,86.5,90.71,152.44,92.89,50.75,1.68,97.26-17.64,131.33-50.09,19.25,33.27,54.59,56.21,95.83,57.57,34.37,1.14,65.62-12.98,87.49-36.15,33.55,31.07,77.98,50.71,127.27,52.33,59.44,1.96,113.56-22.66,151.03-63.11,21.72,18.63,49.63,30.33,80.46,31.35,43.19,1.43,82.04-18.42,106.81-49.99,17.49,18.66,42.08,30.65,69.66,31.56,35.66,1.18,67.5-16.51,86.12-44.02,13.35,24.82,39.11,42.09,69.32,43.09,23.73,.78,45.36-8.66,60.82-24.29,9.36,7.75,21.22,12.6,34.32,13.03,20.89,.69,39.48-10.02,49.9-26.51,7.62,9.1,18.8,15.13,31.57,15.55,14.56,.48,27.59-6.34,35.78-17.11,5.89,5.85,13.86,9.65,22.83,9.95,10.26,.34,19.51-3.99,26-10.95,4.66,4.39,10.8,7.23,17.71,7.46,8.49,.28,16.09-3.42,21.3-9.33,7.02,4.21,19.07,6.97,32.82,6.95,15.4-.02,28.59-3.55,35.02-8.65,29.16,4.23,52.36,2.17,53.78-5.35,1.57-8.4-24.56-20.34-58.4-26.71Z"/>
          <path id="front-center-cloud" class="cls-1" d="M3014.5,1655.95c-25.92-2.76-53.67-4.13-81.24-4.36-1.15-14.57-9.37-28.29-23.19-35.77-21.64-11.66-48.68-3.6-60.36,18.05-5.18-74.79-212.73-117.97-248.34-47.92-3.62-26.91-19.38-51.84-45.1-65.71-42.63-22.98-95.87-7.12-118.87,35.55-.62,1.14-.9,2.36-1.47,3.52-12.99-3.02-26.18-5.06-39.46-6.07,4.25-24.3-6.89-49.65-29.82-62.05-27.38-14.74-61.07-5.46-77.51,20.4-9.08-7.43-18.93-14.15-29.64-19.94-26.53-14.32-55-21.38-83.23-22.2-15.29-41.02-44.77-76.95-86.31-99.37-72.82-39.29-160.08-25.25-217.2,28.59-.2-35.65-18.87-70.13-52.47-88.26-32.47-17.52-70.12-15.06-99.62,2.64-7.65-47.99-36.6-92.04-82.68-116.92-60.14-32.46-131.7-22.73-180.97,18.88-13.76-27.79-35.83-51.78-65.21-67.62-75.39-40.66-169.53-12.57-210.23,62.85-1.7,3.14-3.09,6.37-4.56,9.58-13.44-12.84-28.63-24.26-45.78-33.53-103.38-55.76-232.46-17.23-288.25,86.17-10.14,18.79-17.08,38.45-21.16,58.35-57.12-.81-112.74,29.29-141.72,83.05-8.18,15.15-13.54,31.04-16.44,47.13-33.6-7.13-68.42,2.98-92.98,26.86-6.52-5.34-13.6-10.19-21.29-14.33-62.95-33.98-140.94-12.12-177.55,48.45-2.01-1.52-4.01-3.04-6.29-4.26-23.72-12.8-53.35-3.96-66.15,19.77-5.49,10.19-6.79,21.41-4.84,31.99-6.29,1.48-12.45,3.47-18.4,6-4.27-9.27-11.29-17.35-20.99-22.58-23.72-12.79-53.35-3.94-66.14,19.79-5.13,9.52-6.64,19.95-5.25,29.88-8.17,1.81-16.03,4.43-23.41,8.12-20.61-4.32-42.43,4.91-52.92,24.38-1.09,2.03-1.82,4.16-2.62,6.27-6.1-1.34-12.47-2.27-19.19-2.27-23.73,0-44.24,9.07-55.51,22.44-1.75-.01-3.47-.05-5.24-.05-66.71,0-120.75,10.37-120.75,23.19s54.04,23.18,120.75,23.18c1.77,0,3.49-.04,5.22-.06,11.29,13.39,31.8,22.45,55.53,22.45,13.4,0,25.86-2.87,36.19-7.79,8.38,15.13,21.69,28.2,39.5,36.83,26.24,12.73,56.07,12.79,81.54,3.09,7.08,6.68,15.02,12.61,23.98,17.45,35.32,19.07,76.21,17.41,108.93-.66,8.32,8.94,18.13,16.73,29.48,22.84,51.77,27.97,115.37,12.12,148.55-34.69,8.73,25.76,26.74,48.43,52.56,62.34,53.43,28.89,119.82,9.56,149.79-42.87,18.13,24.87,41.74,46.3,70.62,61.87,90.97,49.19,201.75,25.11,265.08-51.78,12.18,20.99,29.98,39.06,52.91,51.42,66.07,35.71,148.57,11.03,184.24-55.05,.53-.98,.9-1.97,1.4-2.95,8.9,26.97,27.61,50.76,54.59,65.29,55.97,30.27,125.85,9.34,156.07-46.62,2.05-3.79,3.81-7.68,5.4-11.58,16.9,25.72,40.22,47.74,69.2,63.36,89.3,48.28,199.69,18.23,253.13-66.27,11.21,17.68,26.91,32.87,46.64,43.5,51.78,27.98,114.3,15.94,152.53-25.27,4.46,2.92,8.99,5.77,13.77,8.34,72.35,39.1,158.84,25.47,215.97-27.46,72.16,22.33,155.77,11.15,209.92-25.44,36.37,6.22,74.64,6.49,110.07,1.49,6.81,7.94,15,14.94,24.77,20.2,42.64,23.06,95.87,7.14,118.9-35.53,.19-.36,.29-.76,.48-1.13,50.85-2.74,97.93-12.73,127.88-28.64,78.29,3.02,160.69-4.13,200.6-18.67,49.07-17.91,15.13-40.24-75.83-49.9Z"/>
        </g>
      </g>
    </g>
  </g>
</svg>